<?xml version="1.0" encoding="iso-8859-1"?>
<!-- Generator: Adobe Illustrator 17.1.0, SVG Export Plug-In . SVG Version: 6.00 Build 0)  -->
<!DOCTYPE svg PUBLIC "-//W3C//DTD SVG 1.1//EN" "http://www.w3.org/Graphics/SVG/1.1/DTD/svg11.dtd">
<svg version="1.1" id="Capa_1" xmlns="http://www.w3.org/2000/svg" xmlns:xlink="http://www.w3.org/1999/xlink" x="0px" y="0px"
	 viewBox="0 0 351.581 351.581" style="enable-background:new 0 0 351.581 351.581;" xml:space="preserve">
<defs>
  <style type="text/css"><![CDATA[
    path {
      fill: #aaa;
    }
    @media (prefers-color-scheme: dark) {
      path {
        fill: #fff;
      }
    }
  ]]></style>
</defs>
<path d="M351.028,33.247c-3.797-5.216-14.623-8.943-21.965-9.025c-2.047-0.023-6.584-0.691-12.328-1.538
	c-11.229-1.654-28.201-4.155-42.809-4.155c-10.433,0-18.054,1.223-23.293,3.737c-13.67,4.896-20.404,16.925-26.917,28.559
	c-1.281,2.288-2.605,4.654-3.936,6.881c-1.282,1.963-7.867,7.884-15.492,14.739c-11.359,10.212-26.917,24.199-36.2,35.152
	c-12.18,14.371-24.923,26.82-37.246,38.859c-17.629,17.222-35.857,35.031-53.69,59.426c-4.365,5.973-5.827,10.275-4.468,13.155
	c1.704,3.608,7.267,3.928,11.735,4.185c1.89,0.108,5.406,0.311,5.588,0.968c0.236,0.857-1.779,3.931-17.936,14.878l-0.089,0.068
	c-17.45,14.917-60.989,54.622-61.44,55.034c-1.62,1.533-2.242,2.963-1.85,4.249c0.443,1.45,1.97,1.984,2.354,2.048
	c0.421,0.07,0.638,0.151,0.741,0.203c-0.175,0.581-1.446,1.999-2.479,3.152c-3.396,3.789-9.08,10.13-9.307,19.12
	c-0.023,0.929,0.272,1.664,0.878,2.285c1.386,1.422,4.188,1.564,6.745,1.564c0.001,0,0.001,0,0.002,0
	c1.17,0,2.429,0.004,3.646-0.041c1.223-0.045,2.487-0.066,3.665-0.066c2.123,0,5.061,0.145,6.045,1.289
	c0.207,0.241,0.467,0.673,0.328,1.59c-0.167,1.111,0.018,1.991,0.549,2.608c0.503,0.583,1.258,0.881,2.245,0.881
	c5.866,0,21.543-10.677,39.905-23.577c6.307-4.431,11.753-8.257,13.727-9.215c4.748-2.305,11.602-7.223,19.537-12.919
	c13.761-9.876,30.886-22.167,40.104-22.167c3.143,0,5.039,1.397,5.968,4.396c0.369,1.191,1.476,2.612,4.652,2.612
	c6.729,0,20.513-6.301,33.676-13.253c2.624,5.068,6.369,8.366,9.982,10.032c-0.015,6.107-0.044,14.831-0.263,22.841
	c-0.027,0.026-0.053,0.06-0.081,0.082c-1.288,1.028-3.448,1.054-6.184,1.087c-4.465,0.054-10.579,0.127-16.929,4.969
	c-3.703,2.824-6.152,6.866-6.708,8.835c-0.147,0.522-0.096,0.954,0.153,1.284c0.212,0.28,0.538,0.44,0.894,0.44
	c0.291,0,0.582-0.105,0.889-0.323l0.647-0.462c2.057-1.475,6.875-4.928,9.454-5.909c3.489-1.328,6.051-1.869,8.844-1.869
	c2.418,0,5.145,0.417,8.636,1.195c-0.344,5.742-0.873,9.995-1.697,10.753c-1.288,1.028-3.448,1.054-6.184,1.087
	c-4.465,0.054-10.579,0.127-16.929,4.969c-3.703,2.824-6.152,6.866-6.708,8.835c-0.147,0.522-0.096,0.954,0.153,1.284
	c0.212,0.28,0.538,0.44,0.894,0.44c0.291,0,0.582-0.105,0.889-0.323l0.647-0.462c2.057-1.475,6.875-4.928,9.454-5.909
	c3.489-1.328,6.051-1.869,8.844-1.869c3.675,0,8.025,0.947,14.768,2.693c4.146,1.074,7.685,1.596,10.821,1.596
	c4.085,0,7.046-0.863,10.181-1.777c3.629-1.058,7.382-2.151,13.512-2.151c1.139,0,2.341,0.039,3.573,0.116
	c6.707,0.42,12.726,3.917,15.617,5.598c1.271,0.738,1.655,0.961,2.096,0.961l0.699-0.026l0.265-0.592
	c0.337-0.749-0.056-1.193-1.94-3.317c-6.582-7.411-12.279-8.782-18.02-9.62c-2.163-0.315-3.858-1.058-4.03-1.753
	c-0.107-0.438,0.409-1.386,2.187-2.68c2.728-1.987,5.469-3.034,8.147-3.034c4.505,0,7.636,2.903,7.98,4.174l0.248,0.666h0.766
	c0.373,0,0.865-0.068,1.023-0.698c0.248-0.988,0.056-4.598-2.775-6.907c2.243,1.017,4.095,2.093,5.354,2.824
	c1.271,0.738,1.655,0.961,2.096,0.961l0.699-0.026l0.265-0.592c0.337-0.749-0.056-1.193-1.94-3.317
	c-6.582-7.411-12.279-8.782-18.02-9.62c-2.163-0.315-3.858-1.058-4.03-1.753c-0.107-0.438,0.409-1.386,2.187-2.68
	c2.728-1.987,5.469-3.034,8.147-3.034c4.505,0,7.636,2.903,7.98,4.174l0.248,0.666h0.766c0.373,0,0.865-0.068,1.023-0.698
	c0.28-1.116,0.006-5.583-4.011-7.734c-1.964-1.052-4.997-1.631-8.541-1.631c-9.324,0-19.569,3.655-27.51,9.817
	c-1.104-2.255-0.92-13.956-0.796-21.826c0.024-1.507,0.044-2.904,0.059-4.198c2.21-1.675,4.466-3.732,6.559-6.203
	c4.226-4.99,8.946-13.204,8.558-24.68c6.698-4.32,12.433-8.226,15.837-10.863c-0.669,2.257-0.672,3.763-0.042,4.718
	c0.299,0.453,0.884,0.992,1.976,0.992c1.052,0,2.427-0.523,4.203-1.599c13.934-8.441,51.613-58.796,59.744-77.628
	c0.622-1.44,1.357-3.03,2.149-4.745c4.843-10.479,11.475-24.83,8.729-38.238c-1.861-9.014-4.457-14.867-9.258-20.879
	c-0.804-1.005-1.751-1.934-2.753-2.917c-3.218-3.156-6.544-6.42-5.526-12.668c2.886-17.742,11.363-20.537,24.194-24.769
	c3.066-1.011,6.237-2.057,9.677-3.405c1.294-0.507,2.744-1.258,4.28-2.052c3.43-1.773,7.316-3.783,10.733-3.783
	c0.548,0,1.075,0.053,1.566,0.158l0.25,0.027c0.457,0,0.873-0.26,1.086-0.678C351.636,34.904,351.734,34.217,351.028,33.247z
	 M235.712,300.728c-9.267,0-19.443,3.611-27.326,9.679c-0.431-0.936-0.774-3.17-1.05-6.195c0.208,0.005,0.42,0.013,0.625,0.013
	c4.085,0,7.046-0.863,10.181-1.777c3.629-1.058,7.382-2.151,13.512-2.151c1.139,0,2.341,0.039,3.573,0.116
	c1.116,0.07,2.21,0.231,3.276,0.449C237.617,300.775,236.686,300.728,235.712,300.728z"/>
<g>
</g>
<g>
</g>
<g>
</g>
<g>
</g>
<g>
</g>
<g>
</g>
<g>
</g>
<g>
</g>
<g>
</g>
<g>
</g>
<g>
</g>
<g>
</g>
<g>
</g>
<g>
</g>
<g>
</g>
</svg>
